PathFileType	4	(X/Y/Z)	SUB01_off_static_1_1707858583308
DataRate	CameraRate	NumFrames	NumMarkers	Units	OrigDataRate	OrigDataStartFrame	OrigNumFrames
150.00	150.00	       4	71	mm  	150.00	94	       150
Frame#	Time	CLAV			STRN			C7			T10			RSHO			LSHO			RUPA			REL			REM			RFRA			RWL			RWM			LUPA			LEL			LEM			LFRA			LWL			LWM			R.ASIS			L.ASIS			R.PSIS			L.PSIS			R.GTR			R.Knee			R.HF			R.TT			R.Ankle			R.Heel			R.MT1			R.MT5			L.GTR			L.Knee			L.HF			L.TT			L.Ankle			L.Heel			L.MT1			L.MT5			R.Knee.Medial			R.Ankle.Medial			R.MT2			L.Knee.Medial			L.Ankle.Medial			L.MT2			V_Mid_ASIS			V_Mid_PSIS			V_Pelvis_Origin			V_R.Hip_JC			V_R.Knee_JC_Static			V_R.TT			V_R.Ankle_JC			V_L.Hip_JC			V_Mid_Hip			V_R.MT2			V_R.Knee.Medial			V_R.Ankle.Medial			V_R.TT			V_L.Knee_JC_Static			V_L.TT			V_L.Ankle_JC			V_L.MT2			V_L.Knee.Medial			V_L.Ankle.Medial			V_R.Knee_JC2			V_R.Knee2			V_R.Knee_JC_Dynamic			V_R.Ankle_JC_Dynamic			V_L.Knee_JC_Dynamic			V_L.Ankle_JC_Dynamic			V_R.TT2			V_L.TT2			
		X1	Y1	Z1	X2	Y2	Z2	X3	Y3	Z3	X4	Y4	Z4	X5	Y5	Z5	X6	Y6	Z6	X7	Y7	Z7	X8	Y8	Z8	X9	Y9	Z9	X10	Y10	Z10	X11	Y11	Z11	X12	Y12	Z12	X13	Y13	Z13	X14	Y14	Z14	X15	Y15	Z15	X16	Y16	Z16	X17	Y17	Z17	X18	Y18	Z18	X19	Y19	Z19	X20	Y20	Z20	X21	Y21	Z21	X22	Y22	Z22	X23	Y23	Z23	X24	Y24	Z24	X25	Y25	Z25	X26	Y26	Z26	X27	Y27	Z27	X28	Y28	Z28	X29	Y29	Z29	X30	Y30	Z30	X31	Y31	Z31	X32	Y32	Z32	X33	Y33	Z33	X34	Y34	Z34	X35	Y35	Z35	X36	Y36	Z36	X37	Y37	Z37	X38	Y38	Z38	X39	Y39	Z39	X40	Y40	Z40	X41	Y41	Z41	X42	Y42	Z42	X43	Y43	Z43	X44	Y44	Z44	X45	Y45	Z45	X46	Y46	Z46	X47	Y47	Z47	X48	Y48	Z48	X49	Y49	Z49	X50	Y50	Z50	X51	Y51	Z51	X52	Y52	Z52	X53	Y53	Z53	X54	Y54	Z54	X55	Y55	Z55	X56	Y56	Z56	X57	Y57	Z57	X58	Y58	Z58	X59	Y59	Z59	X60	Y60	Z60	X61	Y61	Z61	X62	Y62	Z62	X63	Y63	Z63	X64	Y64	Z64	X65	Y65	Z65	X66	Y66	Z66	X67	Y67	Z67	X68	Y68	Z68	X69	Y69	Z69	X70	Y70	Z70	X71	Y71	Z71	
94	0.620000	969.294861	1390.044067	587.986389	975.197021	1230.348877	581.516418	836.699341	1488.509521	587.875427	741.351196	1233.544434	565.023132	840.151123	1480.694336	732.632141	873.220337	1495.134399	443.522766	875.630432	1462.128540	911.821899	908.966309	1472.395630	1005.418640	937.483948	1372.252686	1016.063660	945.049377	1472.878662	1172.286255	1020.340332	1434.342285	1251.088013	955.871826	1464.929810	1271.045898	943.151123	1478.735962	276.668823	997.287537	1489.843750	167.530655	1009.202820	1387.792847	153.598572	1028.507324	1476.551270	23.540123	1127.533081	1432.169312	-42.659668	1063.631592	1460.012207	-70.191391	961.417114	942.919800	679.549011	960.314270	935.212280	471.728699	760.671509	1010.116089	604.765808	766.196716	1008.847595	525.900269	858.308105	883.142944	753.644409	862.328430	512.362671	730.711853	863.816223	441.030121	732.579163	906.678650	397.894806	681.633118	781.615967	93.261765	725.007324	724.843689	49.824631	681.561890	927.065674	43.090973	676.645203	888.940796	30.955936	761.553894	874.721375	882.617981	394.197174	869.456177	497.174835	434.089508	875.302246	438.825409	437.070190	917.025208	393.257324	484.068115	781.344849	76.758095	462.562927	733.327637	53.668171	512.981873	942.553772	40.126263	497.981873	889.560242	33.130314	422.939056	870.073181	501.833954	601.212952	807.985107	94.657974	640.757813	928.916748	38.835678	716.019104	889.996887	499.527618	563.849121	817.615784	80.119568	546.309753	932.466064	38.791962	459.103729	0.000000	0.000000	0.000000	0.000000	0.000000	0.000000	0.000000	0.000000	0.000000	0.000000	0.000000	0.000000	0.000000	0.000000	0.000000	0.000000	0.000000	0.000000	0.000000	0.000000	0.000000	0.000000	0.000000	0.000000	0.000000	0.000000	0.000000	0.000000	0.000000	0.000000	0.000000	0.000000	0.000000	0.000000	0.000000	0.000000	0.000000	0.000000	0.000000	0.000000	0.000000	0.000000	0.000000	0.000000	0.000000	0.000000	0.000000	0.000000	0.000000	0.000000	0.000000	0.000000	0.000000	0.000000	0.000000	0.000000	0.000000	0.000000	0.000000	0.000000	0.000000	0.000000	0.000000	0.000000	0.000000	0.000000	0.000000	0.000000	0.000000	0.000000	0.000000	0.000000	0.000000	0.000000	0.000000	0.000000	0.000000	0.000000	0.000000	0.000000	0.000000	
95	0.626667	969.344177	1390.042725	587.991516	975.238831	1230.343506	581.509216	836.751465	1488.517578	587.888184	741.393982	1233.557251	565.023071	840.210327	1480.686523	732.642822	873.273010	1495.144531	443.532898	875.700500	1462.099854	911.825562	909.036194	1472.339355	1005.422058	937.503418	1372.180298	1016.061951	945.109680	1472.790527	1172.292480	1020.354187	1434.226807	1251.088501	955.919617	1464.829712	1271.061035	943.194519	1478.739990	276.671051	997.333069	1489.845093	167.529678	1009.253845	1387.785400	153.608765	1028.503052	1476.533081	23.528631	1127.503296	1432.101563	-42.698795	1063.609741	1459.994385	-70.211258	961.430786	942.923218	679.550720	960.346558	935.218079	471.732697	760.688110	1010.128418	604.743591	766.173462	1008.875793	525.873962	858.305908	883.146973	753.634033	862.332520	512.366150	730.708191	863.822998	441.034485	732.574524	906.687012	397.897980	681.632080	781.618286	93.267639	725.005554	724.845886	49.830006	681.559937	927.067139	43.090893	676.644470	888.929993	30.958780	761.560974	874.761169	882.626770	394.190796	869.446472	497.183075	434.084534	875.292053	438.833038	437.068268	917.015991	393.265564	484.065674	781.344116	76.762947	462.561493	733.327026	53.672318	512.979675	942.552795	40.125858	497.980408	889.559204	33.129528	422.938110	870.090393	501.835754	601.207397	807.986328	94.662292	640.756836	928.917664	38.835716	716.018494	889.995178	499.543579	563.839294	817.615967	80.125519	546.306335	932.465820	38.791977	459.102783	0.000000	0.000000	0.000000	0.000000	0.000000	0.000000	0.000000	0.000000	0.000000	0.000000	0.000000	0.000000	0.000000	0.000000	0.000000	0.000000	0.000000	0.000000	0.000000	0.000000	0.000000	0.000000	0.000000	0.000000	0.000000	0.000000	0.000000	0.000000	0.000000	0.000000	0.000000	0.000000	0.000000	0.000000	0.000000	0.000000	0.000000	0.000000	0.000000	0.000000	0.000000	0.000000	0.000000	0.000000	0.000000	0.000000	0.000000	0.000000	0.000000	0.000000	0.000000	0.000000	0.000000	0.000000	0.000000	0.000000	0.000000	0.000000	0.000000	0.000000	0.000000	0.000000	0.000000	0.000000	0.000000	0.000000	0.000000	0.000000	0.000000	0.000000	0.000000	0.000000	0.000000	0.000000	0.000000	0.000000	0.000000	0.000000	0.000000	0.000000	0.000000	
96	0.633333	969.396362	1390.039795	587.999207	975.284241	1230.337280	581.502380	836.807861	1488.525879	587.902344	741.437988	1233.570679	565.023560	840.277100	1480.677246	732.654419	873.329712	1495.153320	443.543518	875.774536	1462.070435	911.830078	909.105225	1472.283325	1005.427368	937.515381	1372.106567	1016.065186	945.168457	1472.704956	1172.300659	1020.365417	1434.114502	1251.090454	955.963928	1464.730591	1271.080444	943.236023	1478.741943	276.672516	997.373047	1489.842651	167.527725	1009.287476	1387.775024	153.610001	1028.495972	1476.517944	23.516310	1127.472900	1432.041260	-42.736816	1063.586670	1459.980713	-70.232590	961.448547	942.927063	679.546875	960.375854	935.223267	471.732483	760.706116	1010.141296	604.723083	766.164429	1008.900330	525.851074	858.308289	883.151062	753.622559	862.338196	512.369385	730.703308	863.831299	441.038574	732.569031	906.696228	397.900879	681.629822	781.621094	93.273232	725.003906	724.847839	49.835072	681.558411	927.068542	43.090584	676.643433	888.919312	30.961651	761.568298	874.794800	882.635071	394.183014	869.433899	497.191589	434.080658	875.279968	438.840607	437.065918	917.006226	393.273346	484.061646	781.342712	76.767258	462.560699	733.326233	53.675713	512.978455	942.551453	40.125454	497.978546	889.557983	33.128689	422.937134	870.108093	501.837158	601.201111	807.987366	94.666275	640.755737	928.918640	38.835514	716.017639	889.994019	499.557953	563.829895	817.616455	80.130867	546.303223	932.465393	38.791885	459.101746	0.000000	0.000000	0.000000	0.000000	0.000000	0.000000	0.000000	0.000000	0.000000	0.000000	0.000000	0.000000	0.000000	0.000000	0.000000	0.000000	0.000000	0.000000	0.000000	0.000000	0.000000	0.000000	0.000000	0.000000	0.000000	0.000000	0.000000	0.000000	0.000000	0.000000	0.000000	0.000000	0.000000	0.000000	0.000000	0.000000	0.000000	0.000000	0.000000	0.000000	0.000000	0.000000	0.000000	0.000000	0.000000	0.000000	0.000000	0.000000	0.000000	0.000000	0.000000	0.000000	0.000000	0.000000	0.000000	0.000000	0.000000	0.000000	0.000000	0.000000	0.000000	0.000000	0.000000	0.000000	0.000000	0.000000	0.000000	0.000000	0.000000	0.000000	0.000000	0.000000	0.000000	0.000000	0.000000	0.000000	0.000000	0.000000	0.000000	0.000000	0.000000	
97	0.640000	969.450806	1390.035156	588.009644	975.332886	1230.329956	581.496094	836.868591	1488.533936	587.918091	741.482971	1233.584106	565.024231	840.351624	1480.665894	732.666809	873.390747	1495.160645	443.554901	875.849792	1462.039673	911.836426	909.170898	1472.228271	1005.435852	937.522949	1372.033691	1016.072876	945.224976	1472.622559	1172.311401	1020.376038	1434.006958	1251.094727	956.004395	1464.633301	1271.104004	943.275757	1478.741943	276.673553	997.407410	1489.836182	167.524994	1009.301086	1387.761597	153.601181	1028.487427	1476.506470	23.503641	1127.443237	1431.990601	-42.772652	1063.563721	1459.971802	-70.254654	961.470093	942.930786	679.537598	960.402100	935.226929	471.727966	760.725586	1010.154236	604.704651	766.172913	1008.919861	525.832275	858.315857	883.154907	753.610107	862.345093	512.372192	730.697266	863.840698	441.042175	732.562561	906.705994	397.903290	681.626282	781.624207	93.278305	725.002380	724.849426	49.839600	681.557251	927.069702	43.089993	676.642151	888.909607	30.964281	761.575134	874.822205	882.642395	394.173859	869.419556	497.199768	434.077484	875.267090	438.847656	437.063110	916.996704	393.280182	484.056244	781.340576	76.770866	462.560577	733.325378	53.678318	512.978394	942.549805	40.125057	497.976318	889.556396	33.127842	422.936218	870.125305	501.838135	601.194031	807.988220	94.669701	640.754578	928.919678	38.835045	716.016479	889.993347	499.570099	563.821167	817.617310	80.135437	546.300720	932.464661	38.791656	459.100647	0.000000	0.000000	0.000000	0.000000	0.000000	0.000000	0.000000	0.000000	0.000000	0.000000	0.000000	0.000000	0.000000	0.000000	0.000000	0.000000	0.000000	0.000000	0.000000	0.000000	0.000000	0.000000	0.000000	0.000000	0.000000	0.000000	0.000000	0.000000	0.000000	0.000000	0.000000	0.000000	0.000000	0.000000	0.000000	0.000000	0.000000	0.000000	0.000000	0.000000	0.000000	0.000000	0.000000	0.000000	0.000000	0.000000	0.000000	0.000000	0.000000	0.000000	0.000000	0.000000	0.000000	0.000000	0.000000	0.000000	0.000000	0.000000	0.000000	0.000000	0.000000	0.000000	0.000000	0.000000	0.000000	0.000000	0.000000	0.000000	0.000000	0.000000	0.000000	0.000000	0.000000	0.000000	0.000000	0.000000	0.000000	0.000000	0.000000	0.000000	0.000000	
